<svg width="24" height="24" fill="none" xmlns="http://www.w3.org/2000/svg"><path d="M23.055 7.333a12.068 12.068 0 00-4.35-5.28A11.937 11.937 0 0012 0a11.94 11.94 0 00-4.667.945 12.069 12.069 0 00-5.28 4.35A11.937 11.937 0 000 12c0 1.653.337 3.232.945 4.668a12.068 12.068 0 004.35 5.28A11.937 11.937 0 0012 24a11.94 11.94 0 004.667-.945 12.068 12.068 0 005.28-4.35A11.937 11.937 0 0024 12c0-1.653-.337-3.232-.945-4.667zm-1.473 8.71a10.47 10.47 0 01-3.773 4.579A10.336 10.336 0 0112 22.4c-1.435 0-2.8-.291-4.043-.818a10.469 10.469 0 01-4.579-3.772A10.335 10.335 0 011.6 12c0-1.435.291-2.8.818-4.043A10.469 10.469 0 016.19 3.378 10.335 10.335 0 0112 1.6c1.435 0 2.8.291 4.043.818a10.47 10.47 0 014.579 3.772A10.336 10.336 0 0122.4 12c0 1.435-.291 2.8-.818 4.043z" fill="#78757E"/><path d="M20.303 10.477a3.933 3.933 0 00-2.442-2.214 3.905 3.905 0 00-1.163-.177c-.58 0-1.127.123-1.626.328-.438.179-.84.419-1.218.693-.659.482-1.242 1.069-1.799 1.67l-.054.058-.011-.013a18.645 18.645 0 00-.97-.987c-.506-.472-1.049-.902-1.662-1.223a4.756 4.756 0 00-.975-.383 4.167 4.167 0 00-1.078-.143 3.9 3.9 0 00-1.524.309 3.932 3.932 0 00-2.214 2.442 3.905 3.905 0 00.132 2.686 3.933 3.933 0 002.442 2.215c.369.114.76.176 1.164.176.579 0 1.126-.123 1.626-.327.437-.18.84-.42 1.217-.694.659-.481 1.242-1.069 1.8-1.67l.053-.058.012.013c.312.338.633.673.97.987.506.472 1.048.902 1.662 1.223.306.16.631.292.974.383.343.092.705.143 1.079.143.538 0 1.054-.11 1.523-.309a3.931 3.931 0 002.214-2.442 3.902 3.902 0 00-.132-2.686zm-9.464 1.64c-.298.322-.593.63-.888.904-.442.413-.882.752-1.318.979a3.21 3.21 0 01-.654.259c-.22.058-.44.09-.674.09a2.33 2.33 0 01-.913-.185 2.367 2.367 0 01-1.33-1.467 2.336 2.336 0 01.079-1.61 2.368 2.368 0 011.466-1.33c.22-.068.454-.105.698-.105.36 0 .695.073 1.033.21.295.121.59.293.888.51.52.38 1.044.896 1.573 1.468l.146.16-.106.116zm8.023.795a2.367 2.367 0 01-1.467 1.33c-.22.07-.453.106-.697.106a2.69 2.69 0 01-1.033-.21 4.253 4.253 0 01-.888-.51c-.521-.38-1.044-.896-1.573-1.468l-.147-.16.106-.116c.298-.323.594-.63.888-.905.442-.413.882-.752 1.318-.979.218-.114.435-.2.654-.259.22-.058.441-.09.675-.09.325 0 .632.067.912.185a2.366 2.366 0 011.33 1.467 2.336 2.336 0 01-.078 1.61z" fill="#78757E"/></svg>