<svg width="518" height="246" viewBox="0 0 518 246" fill="none" xmlns="http://www.w3.org/2000/svg">
<circle cx="179.5" cy="224.5" r="89.5" fill="#5375FD" fill-opacity="0.05"/>
<circle cx="273.5" cy="7.5" r="125.5" fill="#5375FD" fill-opacity="0.05"/>
<circle cx="473" cy="23" r="18" fill="#5375FD" fill-opacity="0.05"/>
<circle cx="478.5" cy="208.5" r="141.5" fill="#FEBC2D" fill-opacity="0.05"/>
<path d="M251.302 110.537C251.038 110.874 250.767 111.21 250.49 111.546C249.907 111.399 249.335 111.212 248.779 110.985C241.887 108.285 217.151 94.0762 230.554 32.0679C230.554 32.0662 283.156 70.2902 251.302 110.537Z" fill="#84A9FF"/>
<path d="M251.301 110.537C251.036 110.874 250.766 111.21 250.488 111.546C249.906 111.399 249.334 111.212 248.778 110.985C248.661 110.769 248.545 110.553 248.432 110.336C248.107 109.721 247.793 109.102 247.491 108.479C246.88 107.235 246.297 105.981 245.741 104.716C244.623 102.19 243.615 99.618 242.685 97.0235C241.756 94.4289 240.919 91.7954 240.179 89.1473C239.438 86.4992 238.791 83.8202 238.229 81.1282C237.667 78.4362 237.227 75.7199 236.856 73.0051C236.694 71.6405 236.513 70.279 236.406 68.9095C236.348 68.2255 236.265 67.5448 236.229 66.8592L236.101 64.8057C235.812 59.3328 235.965 53.8455 236.557 48.3971C236.168 53.8494 236.218 59.3242 236.708 64.7683L236.913 66.8024C236.973 67.4815 237.076 68.1557 237.162 68.8348C237.324 70.1864 237.55 71.53 237.759 72.8784C238.229 75.5623 238.764 78.2299 239.417 80.8748C240.07 83.5197 240.809 86.1353 241.637 88.7233C242.466 91.3113 243.394 93.8685 244.399 96.3915C245.405 98.9145 246.493 101.397 247.679 103.834C248.271 105.051 248.886 106.255 249.527 107.445C249.846 108.039 250.171 108.628 250.501 109.213C250.765 109.645 251.036 110.105 251.301 110.537Z" fill="white"/>
<path d="M263.382 138.935C263.266 139.477 263.143 140.022 263.013 140.572C262.252 140.734 261.481 140.843 260.706 140.897C251.155 141.71 214.289 139.338 194.4 59.6276C194.402 59.6276 277.378 73.9599 263.382 138.935Z" fill="#E5E6EB"/>
<path d="M263.38 138.935C263.265 139.478 263.141 140.022 263.011 140.573C262.251 140.735 261.48 140.844 260.704 140.898C260.444 140.714 260.188 140.529 259.929 140.337C259.204 139.808 258.486 139.266 257.775 138.713C256.355 137.62 254.961 136.498 253.592 135.346C250.849 133.049 248.206 130.635 245.642 128.156C243.079 125.677 240.606 123.097 238.226 120.441C235.846 117.784 233.565 115.045 231.375 112.24C229.185 109.434 227.115 106.531 225.128 103.577C224.154 102.084 223.179 100.606 222.264 99.0753C221.804 98.315 221.32 97.5693 220.887 96.8009L219.562 94.489C216.095 88.2932 213.133 81.828 210.705 75.1561C213.371 81.7131 216.561 88.0446 220.243 94.0894L221.645 96.3362C222.103 97.0901 222.62 97.813 223.096 98.5555C224.056 100.034 225.089 101.465 226.103 102.911C228.183 105.761 230.327 108.555 232.602 111.253C234.876 113.952 237.229 116.569 239.67 119.102C242.112 121.635 244.653 124.077 247.264 126.424C249.875 128.772 252.56 131.041 255.33 133.196C256.713 134.271 258.121 135.317 259.543 136.336C260.253 136.843 260.97 137.341 261.692 137.831C262.243 138.211 262.824 138.586 263.38 138.935Z" fill="white"/>
<path d="M266.248 154.294C266.264 154.65 266.274 155.009 266.282 155.371C265.836 155.595 265.374 155.787 264.901 155.946C259.096 157.987 235.804 162.463 210.592 116.143C210.593 116.142 264.467 111.667 266.248 154.294Z" fill="#84A9FF"/>
<path d="M266.247 154.294C266.263 154.65 266.273 155.009 266.281 155.371C265.835 155.595 265.373 155.787 264.9 155.946C264.709 155.873 264.52 155.8 264.328 155.724C263.787 155.507 263.253 155.287 262.728 155.064C261.669 154.613 260.621 154.139 259.584 153.644C257.51 152.66 255.479 151.588 253.484 150.458C251.489 149.329 249.536 148.127 247.635 146.86C245.735 145.593 243.87 144.26 242.055 142.868C240.24 141.476 238.481 140.006 236.778 138.493C235.937 137.721 235.084 136.963 234.273 136.157C233.865 135.759 233.443 135.374 233.048 134.961L231.852 133.738C228.699 130.447 225.815 126.907 223.23 123.152C225.944 126.799 228.948 130.222 232.211 133.387L233.444 134.557C233.851 134.951 234.284 135.317 234.704 135.694C235.539 136.457 236.411 137.18 237.275 137.916C239.027 139.353 240.812 140.742 242.659 142.053C244.506 143.364 246.396 144.61 248.318 145.789C250.24 146.969 252.217 148.077 254.218 149.12C256.22 150.163 258.254 151.136 260.322 152.026C261.355 152.471 262.398 152.895 263.446 153.298C263.969 153.499 264.495 153.692 265.024 153.88C265.427 154.031 265.844 154.174 266.247 154.294Z" fill="white"/>
<path d="M452 221.915C451.999 222.129 451.956 222.341 451.872 222.539C451.789 222.736 451.666 222.915 451.513 223.064C451.202 223.37 450.783 223.541 450.346 223.54H189.651C189.436 223.542 189.222 223.501 189.023 223.42C188.824 223.339 188.642 223.22 188.489 223.069C188.336 222.919 188.213 222.739 188.13 222.541C188.046 222.343 188.002 222.13 188 221.915C188 221.701 188.043 221.489 188.127 221.291C188.211 221.094 188.333 220.916 188.487 220.767C188.798 220.46 189.217 220.289 189.654 220.291H450.349C450.564 220.289 450.778 220.33 450.977 220.41C451.176 220.491 451.358 220.61 451.511 220.761C451.664 220.912 451.786 221.091 451.87 221.289C451.954 221.488 451.998 221.7 452 221.915Z" fill="#E6E8FF"/>
<path d="M376.556 47.1687V208.719C376.556 210.377 375.897 211.967 374.725 213.139C373.552 214.312 371.962 214.97 370.304 214.97H265.959C265.138 214.97 264.325 214.809 263.566 214.494C262.808 214.18 262.119 213.72 261.538 213.139C260.958 212.559 260.497 211.87 260.183 211.111C259.869 210.353 259.707 209.54 259.707 208.719V47.1687C259.707 46.3475 259.868 45.5344 260.182 44.7756C260.496 44.0169 260.957 43.3274 261.537 42.7466C262.118 42.1658 262.807 41.705 263.566 41.3906C264.324 41.0761 265.137 40.9142 265.959 40.9139H370.306C371.964 40.9148 373.554 41.5742 374.726 42.7472C375.898 43.9201 376.556 45.5106 376.556 47.1687Z" fill="white"/>
<path d="M373.222 35.5916H263.043C261.052 35.5937 259.143 36.3856 257.736 37.7934C256.328 39.2011 255.537 41.1098 255.535 43.1005V212.78C255.537 214.771 256.329 216.679 257.736 218.086C259.144 219.494 261.052 220.285 263.043 220.288H373.224C375.214 220.285 377.123 219.494 378.531 218.086C379.938 216.679 380.73 214.771 380.733 212.78V43.1021C380.731 41.1109 379.939 39.2018 378.531 37.7937C377.123 36.3857 375.214 35.5937 373.222 35.5916ZM354.188 37.403L355.922 40.9138H370.306C371.127 40.914 371.94 41.076 372.699 41.3904C373.458 41.7049 374.147 42.1656 374.727 42.7464C375.308 43.3273 375.768 44.0167 376.082 44.7755C376.396 45.5342 376.558 46.3474 376.558 47.1686V208.719C376.558 210.377 375.899 211.967 374.727 213.139C373.554 214.312 371.964 214.97 370.306 214.97H265.96C265.139 214.97 264.326 214.809 263.568 214.494C262.809 214.18 262.12 213.72 261.54 213.139C260.959 212.559 260.499 211.87 260.185 211.111C259.87 210.353 259.709 209.54 259.709 208.719V47.1686C259.709 46.3474 259.87 45.5342 260.184 44.7755C260.498 44.0167 260.959 43.3273 261.539 42.7464C262.12 42.1656 262.809 41.7049 263.567 41.3904C264.326 41.076 265.139 40.914 265.96 40.9138H282.694L283.938 37.403H354.188Z" fill="#84AAFF"/>
<path d="M355.922 39.0765V42.6831H282.695V39.0765C282.695 38.4234 282.823 37.7767 283.073 37.1733C283.322 36.5698 283.689 36.0215 284.15 35.5597C284.612 35.0978 285.16 34.7315 285.764 34.4817C286.367 34.2318 287.014 34.1033 287.667 34.1035H350.949C351.602 34.1033 352.248 34.2318 352.852 34.4817C353.455 34.7315 354.003 35.0978 354.465 35.5597C354.927 36.0215 355.293 36.5698 355.542 37.1733C355.792 37.7767 355.92 38.4234 355.92 39.0765H355.922Z" fill="#FFD57A"/>
<path d="M319.309 24C317.463 24 315.657 24.5476 314.122 25.5736C312.587 26.5996 311.39 28.0579 310.683 29.7641C309.977 31.4702 309.792 33.3476 310.152 35.1588C310.513 36.9699 311.402 38.6336 312.708 39.9393C314.014 41.2449 315.678 42.1341 317.489 42.4941C319.3 42.8542 321.177 42.6691 322.883 41.9622C324.589 41.2552 326.048 40.0583 327.073 38.5227C328.099 36.987 328.646 35.1817 328.646 33.335C328.646 30.8591 327.662 28.4847 325.911 26.7341C324.16 24.9835 321.785 24 319.309 24ZM319.309 37.8563C318.415 37.8563 317.542 37.5913 316.798 37.0946C316.055 36.598 315.476 35.8921 315.134 35.0663C314.792 34.2404 314.702 33.3316 314.876 32.4549C315.051 31.5782 315.481 30.7729 316.113 30.1408C316.746 29.5087 317.551 29.0782 318.428 28.9038C319.304 28.7294 320.213 28.8189 321.039 29.161C321.865 29.5031 322.571 30.0824 323.067 30.8257C323.564 31.5689 323.829 32.4428 323.829 33.3367C323.83 33.9307 323.714 34.5192 323.487 35.0683C323.26 35.6174 322.927 36.1164 322.508 36.5368C322.088 36.9571 321.589 37.2906 321.04 37.5182C320.492 37.7457 319.903 37.8628 319.309 37.8628V37.8563Z" fill="#FFD57A"/>
<path d="M267.441 47.7826V86.7522H306.406V47.7826H267.441ZM304.782 85.1276H269.066V49.4072H304.782V85.1276Z" fill="#E5E6EB"/>
<path d="M368.822 63.3354H312.516V64.9601H368.822V63.3354Z" fill="#E5E6EB"/>
<path d="M368.822 70.5386H312.516V72.1632H368.822V70.5386Z" fill="#E5E6EB"/>
<path d="M368.822 56.1299H312.516V57.7545H368.822V56.1299Z" fill="#E5E6EB"/>
<path d="M368.822 48.9249H312.516V50.5495H368.822V48.9249Z" fill="#E5E6EB"/>
<path d="M368.822 77.7439H312.516V79.3685H368.822V77.7439Z" fill="#E5E6EB"/>
<path d="M350.935 84.9492H312.516V86.5738H350.935V84.9492Z" fill="#E5E6EB"/>
<path d="M283.588 112.004H267.441V94.9717H283.593L283.588 112.004ZM270.015 109.293H281.01V97.6897H270.015V109.293Z" fill="#E5E6EB"/>
<path d="M276.294 110.984L268.236 105.114C268.032 104.956 267.898 104.726 267.861 104.471C267.825 104.216 267.89 103.957 268.041 103.748C268.193 103.54 268.42 103.399 268.674 103.356C268.928 103.312 269.188 103.37 269.401 103.515L275.574 108.009L282.162 94.8334C282.285 94.6077 282.49 94.4385 282.735 94.3613C282.979 94.2842 283.245 94.3051 283.474 94.4198C283.704 94.5345 283.88 94.734 283.965 94.976C284.05 95.2181 284.038 95.4838 283.931 95.7172L276.294 110.984Z" fill="#FFD57A"/>
<path d="M329.841 95.2751H288.33V96.8998H329.841V95.2751Z" fill="#84A9FF"/>
<path d="M368.825 102.48H288.33V104.105H368.825V102.48Z" fill="#E5E6EB"/>
<path d="M368.825 109.685H288.33V111.31H368.825V109.685Z" fill="#E5E6EB"/>
<path d="M348.574 116.889H288.33V118.514H348.574V116.889Z" fill="#E5E6EB"/>
<path d="M283.588 142.953H267.441V125.92H283.593L283.588 142.953ZM270.015 140.233H281.01V128.64H270.015V140.233Z" fill="#E5E6EB"/>
<path d="M276.294 141.932L268.236 136.063C268.032 135.905 267.898 135.674 267.861 135.419C267.825 135.164 267.89 134.905 268.041 134.697C268.193 134.489 268.42 134.348 268.674 134.305C268.928 134.261 269.188 134.318 269.401 134.464L275.574 138.958L282.167 125.774C282.289 125.548 282.495 125.379 282.739 125.302C282.984 125.225 283.249 125.246 283.479 125.36C283.709 125.475 283.885 125.675 283.97 125.917C284.055 126.159 284.043 126.424 283.936 126.658L276.294 141.932Z" fill="#FFD57A"/>
<path d="M359.123 126.224H288.33V127.848H359.123V126.224Z" fill="#84A9FF"/>
<path d="M368.825 133.429H288.33V135.054H368.825V133.429Z" fill="#E5E6EB"/>
<path d="M368.825 140.634H288.33V142.258H368.825V140.634Z" fill="#E5E6EB"/>
<path d="M332.752 147.838H288.33V149.463H332.752V147.838Z" fill="#E5E6EB"/>
<path d="M283.588 173.903H267.441V156.869H283.593L283.588 173.903ZM270.015 171.19H281.01V159.595H270.015V171.19Z" fill="#E5E6EB"/>
<path d="M276.294 172.883L268.236 167.013C268.032 166.856 267.898 166.625 267.861 166.37C267.825 166.115 267.89 165.856 268.041 165.648C268.193 165.439 268.42 165.299 268.674 165.255C268.928 165.212 269.188 165.269 269.401 165.415L275.574 169.908L282.162 156.731C282.285 156.505 282.49 156.336 282.735 156.259C282.979 156.182 283.245 156.203 283.474 156.317C283.704 156.432 283.88 156.632 283.965 156.874C284.05 157.116 284.038 157.381 283.931 157.615L276.294 172.883Z" fill="#FFD57A"/>
<path d="M359.123 157.175H288.33V158.799H359.123V157.175Z" fill="#84A9FF"/>
<path d="M368.825 164.378H288.33V166.003H368.825V164.378Z" fill="#E5E6EB"/>
<path d="M368.825 171.583H288.33V173.208H368.825V171.583Z" fill="#E5E6EB"/>
<path d="M332.752 178.789H288.33V180.413H332.752V178.789Z" fill="#E5E6EB"/>
<path d="M283.588 204.852H267.441V187.818H283.593L283.588 204.852ZM270.015 202.133H281.01V190.538H270.015V202.133Z" fill="#E5E6EB"/>
<path d="M276.295 203.832L268.237 197.962C268.057 197.798 267.944 197.573 267.919 197.331C267.895 197.089 267.96 196.846 268.103 196.649C268.246 196.452 268.457 196.315 268.695 196.264C268.933 196.213 269.182 196.251 269.393 196.372L275.567 200.865L282.16 187.682C282.282 187.456 282.487 187.287 282.732 187.21C282.977 187.132 283.242 187.153 283.471 187.268C283.701 187.383 283.877 187.582 283.962 187.824C284.048 188.066 284.036 188.332 283.929 188.565L276.295 203.832Z" fill="#FFD57A"/>
<path d="M359.123 188.124H288.33V189.748H359.123V188.124Z" fill="#84A9FF"/>
<path d="M368.825 195.327H288.33V196.952H368.825V195.327Z" fill="#E5E6EB"/>
<path d="M368.825 202.532H288.33V204.157H368.825V202.532Z" fill="#E5E6EB"/>
<path d="M332.752 209.737H288.33V211.362H332.752V209.737Z" fill="#E5E6EB"/>
<path d="M300.048 85.1277H273.799V71.0862L286.42 65.5479L300.048 71.0862V85.1277Z" fill="#84AAFF"/>
<path d="M286.925 67.5918C290.661 67.5918 293.689 64.131 293.689 59.8619C293.689 55.5928 290.661 52.132 286.925 52.132C283.19 52.132 280.162 55.5928 280.162 59.8619C280.162 64.131 283.19 67.5918 286.925 67.5918Z" fill="#050F64"/>
<path d="M291.722 57.3404V55.8555H282.125V57.3404C281.913 57.3404 281.71 57.4246 281.56 57.5745C281.41 57.7244 281.326 57.9277 281.326 58.1397V61.1095C281.326 61.3215 281.41 61.5248 281.56 61.6747C281.71 61.8246 281.913 61.9088 282.125 61.9088V62.7081C282.125 63.783 282.487 64.8265 283.154 65.6698V69.0668C283.143 69.5685 283.233 70.0672 283.418 70.5337C283.603 71.0002 283.879 71.4251 284.23 71.7836C284.581 72.1421 285 72.4269 285.463 72.6213C285.925 72.8157 286.422 72.9158 286.924 72.9158C287.426 72.9158 287.922 72.8157 288.385 72.6213C288.847 72.4269 289.267 72.1421 289.618 71.7836C289.969 71.4251 290.245 71.0002 290.43 70.5337C290.614 70.0672 290.704 69.5685 290.694 69.0668V65.6714C291.36 64.8281 291.723 63.7846 291.722 62.7097V61.9104C291.934 61.9104 292.137 61.8262 292.287 61.6763C292.437 61.5264 292.521 61.3231 292.521 61.1111V58.1397C292.521 57.9277 292.437 57.7244 292.287 57.5745C292.137 57.4246 291.934 57.3404 291.722 57.3404Z" fill="#F5BDC8"/>
<path d="M286.925 52.4504C286.009 52.4587 285.109 52.6896 284.303 53.123L284.285 53.1312L284.251 53.149H284.238C283.037 53.7826 282.035 54.5689 281.914 56.3804C281.914 56.4535 281.914 56.5266 281.914 56.5997C281.712 56.7374 281.541 56.9155 281.411 57.1228C280.997 57.7655 280.743 58.4982 280.671 59.2593C280.6 60.0204 280.712 60.7875 280.998 61.4963C281.123 61.7553 281.228 62.0236 281.312 62.2989C281.353 62.4371 281.365 62.5823 281.347 62.7254C281.33 62.8685 281.283 63.0065 281.209 63.1307C281.615 62.9127 281.965 62.6043 282.233 62.2293C282.5 61.8544 282.677 61.4229 282.751 60.9683C282.94 61.4583 283.038 61.9785 283.04 62.5036C282.993 63.2287 282.717 63.92 282.251 64.4775C281.786 65.0299 281.265 65.5315 280.694 65.9737C281.525 65.6744 282.283 65.2006 282.915 64.5841C283.548 63.9675 284.041 63.2227 284.361 62.3996C284.743 61.4004 284.849 60.3217 284.977 59.2592C285.041 58.5792 285.15 57.9041 285.302 57.2382C285.836 57.3094 286.374 57.3446 286.913 57.3438C288.411 57.3438 289.75 57.0822 290.629 56.6744C290.921 56.9932 291.295 57.2253 291.711 57.3454L292.267 55.6883C292.28 55.6672 289.575 52.4504 286.925 52.4504Z" fill="#050F64"/>
<path d="M300.045 71.0862C300.045 71.0862 304.552 79.7226 304.781 85.1277H300.045V71.0862Z" fill="#84AAFF"/>
<path d="M273.799 71.0862C273.799 71.0862 269.293 79.7243 269.068 85.1277H273.804L273.799 71.0862Z" fill="#84AAFF"/>
<path d="M403.115 212.306C403.123 216.569 396.779 219.199 395.624 219.414C394.868 219.557 394.602 218.592 394.479 217.932C395.304 217.693 396.274 217.295 397.609 215.843C399.645 213.627 399.702 212.257 399.702 212.257L403.113 212.3L403.115 212.306Z" fill="#F4BCC7"/>
<path d="M403.114 212.306C402.952 216.514 397.17 218.85 396.023 219.066C395.267 219.209 394.601 218.593 394.478 217.929C394.167 218.018 393.256 218.278 392.973 218.398C391.946 218.837 392.821 219.627 393.712 220.023C394.257 220.262 395.162 220.421 396.606 220.15C398.788 219.74 401.712 217.297 402.342 216.34L402.297 220.127L403.73 220.145L403.787 215.547C403.811 213.357 403.171 212.392 403.114 212.306Z" fill="#050F64"/>
<path d="M420.102 211.96C420.299 216.218 414.068 219.126 412.931 219.391C412.184 219.566 411.873 218.614 411.721 217.961C412.533 217.685 413.487 217.246 414.755 215.735C416.692 213.432 416.689 212.062 416.689 212.062L420.1 211.953L420.102 211.96Z" fill="#F4BCC7"/>
<path d="M420.101 211.96C420.125 216.171 414.452 218.761 413.315 219.025C412.568 219.201 411.874 218.614 411.721 217.961C411.416 218.064 410.516 218.364 410.24 218.497C409.234 218.985 410.141 219.73 411.052 220.083C411.606 220.297 412.514 220.416 413.947 220.083C416.109 219.578 418.922 217.008 419.51 216.021L419.63 219.807L421.063 219.761L420.917 215.167C420.843 212.98 420.156 212.043 420.101 211.96Z" fill="#050F64"/>
<path d="M391.623 160.898V160.888C391.585 160.429 391.598 159.968 391.662 159.512V159.494C391.691 159.286 398.586 123.348 398.586 123.348H421.54C425.428 137.456 425.764 151.238 421.557 161.039L420.197 211.987L416.499 212.098L408.539 154.669C407.318 157.286 405.791 159.749 403.99 162.006L403.299 212.312L399.415 212.258C399.415 212.258 391.639 161.09 391.623 160.898Z" fill="#050F64"/>
<path d="M414.68 63.4978C414.68 63.4978 417.348 63.3175 418.224 67.3287C419.265 72.0969 417.873 77.8984 413.374 80.0007C407.306 82.8307 403.363 76.766 403.363 76.766C403.363 76.766 405.292 77.1446 404.54 73.8872C403.787 70.6299 414.68 63.4978 414.68 63.4978Z" fill="#050F64"/>
<path d="M351.174 86.3235C351.593 85.5957 352.441 85.2805 353.109 85.6038C355.091 86.5493 357.074 87.477 359.061 88.351C361.048 89.2251 363.04 90.0569 365.028 90.762C366.953 91.4658 368.934 92.0033 370.95 92.3687C372.837 92.7015 374.76 92.784 376.669 92.614C378.576 92.4023 380.455 91.9818 382.27 91.3598C384.192 90.7041 386.073 89.937 387.905 89.0626C388.376 88.8352 388.845 88.6256 389.316 88.3852L390.73 87.6801C391.674 87.1927 392.614 86.7053 393.56 86.1936C395.446 85.1847 397.336 84.1238 399.225 83.0515C401.651 81.7519 404.835 83.0012 406.211 85.8459C407.582 88.6857 406.571 91.9772 403.949 93.0576C401.863 93.8569 399.769 94.6529 397.631 95.4116C396.572 95.7983 395.483 96.1622 394.406 96.531L392.764 97.0622C392.22 97.2426 391.654 97.4018 391.1 97.5707C388.825 98.2618 386.511 98.8179 384.17 99.236C381.717 99.6734 379.223 99.8368 376.734 99.7233C374.242 99.5698 371.78 99.0897 369.413 98.2953C367.179 97.5337 365.014 96.5831 362.941 95.4539C360.915 94.3719 358.99 93.2021 357.1 92.008C355.211 90.814 353.364 89.5841 351.533 88.3462C350.912 87.9433 350.755 87.0513 351.174 86.3235Z" fill="#EA8096"/>
<path d="M409.965 81.5472C407.787 81.547 405.635 82.0168 403.656 82.9245C401.677 83.8323 399.917 85.1567 398.497 86.8071C397.077 88.4575 396.029 90.3951 395.427 92.4874C394.824 94.5798 394.68 96.7776 395.005 98.9306L398.589 123.353C405.206 125.826 413.885 125.49 421.543 123.353L422.434 95.0478C422.57 93.327 422.349 91.5966 421.785 89.9654C421.22 88.3341 420.324 86.8374 419.153 85.5693C417.982 84.3012 416.561 83.2892 414.98 82.597C413.398 81.9049 411.691 81.5474 409.965 81.5472Z" fill="#84A9FF"/>
<path d="M406.693 75.4663L406.737 84.7461C408.759 86.0457 410.775 86.036 412.784 84.7168L412.74 75.437L406.693 75.4663Z" fill="#F4BCC7"/>
<path d="M406.695 76.3124L406.707 78.6144C407.641 79.1665 408.698 79.4796 409.782 79.5259H409.971C411.008 79.5248 412.004 79.1232 412.752 78.4049L412.742 76.2815L406.695 76.3124Z" fill="#EA8096"/>
<path d="M404.145 66.7419L404.307 72.3988L404.335 73.346C404.39 74.7892 404.986 76.1589 406.005 77.1824C407.024 78.2059 408.391 78.8083 409.834 78.8697C410.283 78.8885 410.731 78.8149 411.15 78.6536C411.588 78.4881 411.982 78.226 412.305 77.8868C413.02 77.1314 413.486 76.3012 413.915 75.4401C414.001 75.2679 414.086 75.0957 414.167 74.9235C414.864 73.4614 415.375 71.9992 415.265 70.3648L414.605 65.5787L405.917 64.4854L404.145 66.7419Z" fill="#F4BCC7"/>
<path d="M412.692 65.8108C412.692 65.8108 408.486 64.5891 406.133 66.0317C404.931 66.7693 404.471 69.2663 404.312 72.6927C404.312 72.6927 401.388 68.2542 404.064 64.1911C406.739 60.1279 413.675 59.5999 415.311 64.0724L412.692 65.8108Z" fill="#050F64"/>
<path d="M412.695 65.8115C412.695 65.8115 414.708 68.237 414.14 72.7681C414.14 72.7681 416.188 73.5512 416.507 71.8242C416.825 70.0972 417.899 65.2656 414.208 64.1349L412.695 65.8115Z" fill="#050F64"/>
<path d="M415.396 73.6542C416.611 73.6485 417.591 72.659 417.586 71.4441C417.58 70.2292 416.59 69.249 415.375 69.2548C414.161 69.2605 413.18 70.25 413.186 71.4648C413.192 72.6797 414.181 73.6599 415.396 73.6542Z" fill="#F4BCC7"/>
<path d="M439.474 138.104L349.096 67.6708L341.796 77.0381L432.174 147.472L439.474 138.104Z" fill="#FFD57A"/>
<path d="M448.844 145.405L439.477 138.105L432.176 147.472L441.544 154.772L448.844 145.405Z" fill="#050F64"/>
<path d="M328.595 61.2556L330.563 58.7309L323.725 55.4297L328.595 61.2556Z" fill="#050F64"/>
<path d="M341.79 77.039L349.091 67.6715L330.565 58.7312L328.598 61.2558L341.79 77.039Z" fill="#F5BDC8"/>
<path d="M422.267 140.115C421.483 139.813 421.041 139.023 421.258 138.315C421.887 136.211 422.498 134.109 423.055 132.01C423.612 129.911 424.127 127.815 424.517 125.742C424.916 123.732 425.143 121.692 425.193 119.643C425.231 117.728 425.016 115.816 424.555 113.957C424.051 112.105 423.346 110.313 422.451 108.615C421.507 106.818 420.459 105.077 419.312 103.402C419.015 102.971 418.735 102.541 418.425 102.11L417.51 100.822C416.878 99.9641 416.259 99.1096 415.605 98.255C414.318 96.5476 412.978 94.8434 411.628 93.1424C409.967 90.9459 410.713 87.6073 413.312 85.8105C415.912 84.0234 419.314 84.5108 420.786 86.9331C421.897 88.8713 423.006 90.8176 424.087 92.8126C424.631 93.8003 425.159 94.819 425.69 95.8262L426.468 97.3664C426.73 97.8749 426.975 98.411 427.227 98.9309C428.261 101.073 429.167 103.273 429.94 105.522C430.752 107.878 431.3 110.317 431.573 112.794C431.806 115.28 431.71 117.786 431.29 120.247C430.882 122.572 430.277 124.858 429.481 127.081C428.723 129.249 427.866 131.332 426.975 133.382C426.085 135.433 425.157 137.444 424.214 139.447C423.905 140.125 423.049 140.419 422.267 140.115Z" fill="#F4BCC7"/>
<path d="M251.192 208.561H198.188V188.998L224.69 163.685L251.192 188.998V208.561Z" fill="#DA5544"/>
<path d="M242.676 174.992V219.058H206.521V174.992C206.522 174.282 206.382 173.58 206.111 172.924C205.839 172.269 205.442 171.673 204.94 171.171C204.439 170.67 203.843 170.272 203.188 170C202.533 169.728 201.83 169.588 201.121 169.588H237.275C237.985 169.588 238.687 169.728 239.342 170C239.998 170.272 240.593 170.67 241.094 171.171C241.596 171.673 241.994 172.269 242.265 172.924C242.536 173.58 242.676 174.282 242.676 174.992Z" fill="white"/>
<path d="M206.519 174.993H195.715C195.715 173.561 196.284 172.187 197.297 171.174C198.31 170.161 199.684 169.592 201.117 169.592C202.549 169.592 203.923 170.161 204.936 171.174C205.949 172.187 206.519 173.561 206.519 174.993Z" fill="#E5E6EB"/>
<path d="M239.181 177.834H210.191V178.788H239.181V177.834Z" fill="#E5E6EB"/>
<path d="M239.181 180.935H210.191V181.888H239.181V180.935Z" fill="#E5E6EB"/>
<path d="M239.181 184.035H210.191V184.988H239.181V184.035Z" fill="#E5E6EB"/>
<path d="M239.181 187.136H210.191V188.089H239.181V187.136Z" fill="#E5E6EB"/>
<path d="M239.181 190.236H210.191V191.189H239.181V190.236Z" fill="#E5E6EB"/>
<path d="M251.192 220.291H198.188V188.998L224.69 201.689L251.192 188.998V220.291Z" fill="#FFD57A"/>
<path d="M206.519 174.993H195.715V183.36H206.519V174.993Z" fill="#E5E6EB"/>
</svg>
