<svg width="24" height="24" viewBox="0 0 24 24" fill="none" xmlns="http://www.w3.org/2000/svg">
<path d="M20.3873 2.16239C19.9007 1.6748 19.2537 1.40625 18.5652 1.40625H17.4023V1.17188C17.4023 0.525703 16.8766 0 16.2305 0H7.79297C7.1468 0 6.62109 0.525703 6.62109 1.17188V1.40625H5.45405C4.03556 1.40625 2.88024 2.56153 2.87864 3.98152L2.85938 21.419C2.85863 22.1082 3.12614 22.7563 3.61266 23.2439C4.09922 23.7315 4.74633 24 5.43478 24H18.5459C19.9644 24 21.1198 22.8447 21.1213 21.4247L21.1406 3.98723C21.1414 3.29803 20.8739 2.64994 20.3873 2.16239ZM8.02734 1.40625H15.9961V2.8125H8.02734V1.40625ZM19.7166 21.4231C19.7158 22.0687 19.1907 22.5938 18.5459 22.5938H5.43478C5.12185 22.5938 4.8277 22.4717 4.60655 22.2501C4.38539 22.0284 4.2638 21.7338 4.26413 21.4206L4.28339 3.98311C4.2841 3.33759 4.80924 2.8125 5.45405 2.8125H6.62109V3.04688C6.62109 3.69305 7.1468 4.21875 7.79297 4.21875H16.2305C16.8766 4.21875 17.4023 3.69305 17.4023 3.04688V2.8125H18.5652C18.8782 2.8125 19.1723 2.93456 19.3935 3.15619C19.6146 3.37781 19.7362 3.67242 19.7359 3.98564L19.7166 21.4231Z" fill="#78757E"/>
<path d="M12.2383 9.375H17.2338C17.6221 9.375 17.9369 9.06019 17.9369 8.67188C17.9369 8.28356 17.6221 7.96875 17.2338 7.96875H12.2383C11.85 7.96875 11.5352 8.28356 11.5352 8.67188C11.5352 9.06019 11.85 9.375 12.2383 9.375Z" fill="#78757E"/>
<path d="M12.2383 14.0625H17.2338C17.6221 14.0625 17.9369 13.7477 17.9369 13.3594C17.9369 12.9711 17.6221 12.6562 17.2338 12.6562H12.2383C11.85 12.6562 11.5352 12.9711 11.5352 13.3594C11.5352 13.7477 11.85 14.0625 12.2383 14.0625Z" fill="#78757E"/>
<path d="M17.2539 17.3438H12.2383C11.85 17.3438 11.5352 17.6586 11.5352 18.0469C11.5352 18.4352 11.85 18.75 12.2383 18.75H17.2539C17.6422 18.75 17.957 18.4352 17.957 18.0469C17.957 17.6586 17.6423 17.3438 17.2539 17.3438Z" fill="#78757E"/>
<path d="M9.24709 6.75745L7.62559 8.37895L7.24327 7.99659C6.96868 7.722 6.52351 7.722 6.24891 7.99659C5.97432 8.27114 5.97432 8.71636 6.24891 8.99095L7.12843 9.87052C7.26029 10.0024 7.43912 10.0765 7.62563 10.0765C7.8121 10.0765 7.99093 10.0024 8.12279 9.87052L10.2415 7.75186C10.5161 7.47731 10.5161 7.03209 10.2415 6.7575C9.9669 6.48286 9.52173 6.48286 9.24709 6.75745Z" fill="#78757E"/>
<path d="M9.24709 11.8028L7.62559 13.4243L7.24327 13.042C6.96868 12.7674 6.52351 12.7674 6.24891 13.042C5.97432 13.3166 5.97432 13.7617 6.24891 14.0364L7.12843 14.9159C7.26029 15.0478 7.43912 15.1219 7.62563 15.1219C7.8121 15.1219 7.99098 15.0479 8.12279 14.9159L10.2415 12.7972C10.5161 12.5227 10.5161 12.0775 10.2415 11.8029C9.9669 11.5283 9.52168 11.5283 9.24709 11.8028Z" fill="#78757E"/>
<path d="M9.24709 16.4903L7.62559 18.1118L7.24327 17.7295C6.96868 17.4549 6.52351 17.4549 6.24891 17.7295C5.97432 18.0041 5.97432 18.4492 6.24891 18.7239L7.12843 19.6034C7.26029 19.7353 7.43912 19.8094 7.62563 19.8094C7.8121 19.8094 7.99098 19.7354 8.12279 19.6034L10.2415 17.4847C10.5161 17.2102 10.5161 16.765 10.2415 16.4904C9.9669 16.2158 9.52168 16.2158 9.24709 16.4903Z" fill="#78757E"/>
</svg>
